<?xml version="1.0" encoding="UTF-8"?>
<svg version="1.1" xmlns="http://www.w3.org/2000/svg" width="2268" height="2268">
<path d="M0 0 C2.04821799 -0.00702177 4.09643576 -0.01410859 6.14465332 -0.02125549 C12.65763665 -0.04066398 19.17058442 -0.04568981 25.68359375 -0.046875 C27.3478647 -0.04753778 27.3478647 -0.04753778 29.04575729 -0.04821396 C61.5244508 -0.05499871 93.88114636 0.08389275 126.25750732 2.94989014 C129.2545788 3.21492945 132.25244297 3.46937449 135.25048828 3.72314453 C230.96212663 11.93588176 325.67356253 30.75553074 575.25878906 133.53271484 C578.2527102 135.27993494 581.26064732 137.00134933 584.26953125 138.72265625 C610.12500545 153.64604191 635.28060629 170.23034139 659.12109375 188.203125 C659.96873291 188.83782715 659.96873291 188.83782715 660.83349609 189.48535156 C677.91986759 202.31134172 694.52635916 215.94810795 710.171875 230.5 C711.66603579 231.88719853 713.17011629 233.24465954 714.72583008 234.56274414 C721.56637047 240.36580411 727.82917711 246.76086208 734.1574707 253.10913086 C736.17873643 255.1357548 738.20528949 257.15698047 740.23242188 259.17773438 C746.40733557 265.34913014 752.50422017 271.51205449 758.12109375 278.203125 C759.16542782 279.39545949 760.212326 280.5855528 761.26171875 281.7734375 C768.01254756 289.4741209 774.5357078 297.30025563 780.76171875 305.43164062 C782.11179553 307.19100793 783.47549711 308.93918723 784.83984375 310.6875 C800.27155889 330.66095492 813.93618401 352.11819613 826.12109375 374.203125 C826.98661865 375.77151123 826.98661865 375.77151123 827.86962891 377.37158203 C856.13346002 429.10678323 872.81003375 485.48364857 878.12109375 544.203125 C878.19312012 544.9770459 878.26514648 545.7509668 878.33935547 546.54833984 C884.70019795 618.17108875 868.37527757 690.54202705 838.12109375 755.203125 C837.67540039 756.15783691 837.22970703 757.11254883 836.77050781 758.09619141 C816.66406567 800.72215132 788.83538145 840.12580519 757.16796875 874.9375 C755.28587254 877.02073627 753.44947063 879.13531433 751.62109375 881.265625 C748.35254946 885.02596414 744.84128497 888.50135948 741.29296875 891.99609375 C739.38057083 893.93944775 737.61905211 895.9258629 735.87109375 898.015625 C731.70621547 902.88113701 726.93260131 907.07311268 722.203125 911.375 C719.83949642 913.52879698 717.5470574 915.73084831 715.30859375 918.015625 C711.75362917 921.62236091 707.96511963 924.9091386 704.12109375 928.203125 C703.10128224 929.0869163 702.08177387 929.97105745 701.0625 930.85546875 C685.90567402 943.97275667 670.24685413 956.29893658 654.12109375 968.203125 C653.01991211 969.02248535 653.01991211 969.02248535 651.89648438 969.85839844 C586.09262219 1018.77481018 510.95184635 1056.29253352 -140.87890625 1142.203125 C-141.76332397 1142.08386658 -142.6477417 1141.96460815 -143.55895996 1141.84173584 C-210.46526693 1132.77752497 -276.62797193 1117.97866833 -340.87890625 1097.203125 C-342.02024017 1096.8350473 -342.02024017 1096.8350473 -343.18463135 1096.45953369 C-376.75340948 1085.60488813 -409.80121368 1072.89235446 -441.87890625 1058.203125 C-443.98031201 1057.2535593 -446.08187923 1056.30435085 -448.18359375 1055.35546875 C-471.46988783 1044.78402446 -494.26575577 1033.42603368 -516.40722656 1020.62255859 C-519.28392074 1018.97053371 -522.18395544 1017.3643613 -525.08886719 1015.76269531 C-555.49210806 998.94091237 -584.45967929 979.05997005 -611.8828125 957.75390625 C-613.77397652 956.28464575 -615.66988237 954.82170551 -617.56640625 953.359375 C-625.28348957 947.38148788 -632.73289317 941.13633843 -640.10253906 934.73681641 C-641.92209128 933.16583963 -643.75388731 931.61035683 -645.58984375 930.05859375 C-651.25630412 925.26182034 -656.80189201 920.47102198 -661.96069336 915.12036133 C-663.76660495 913.31536913 -665.62725598 911.65492648 -667.5703125 910 C-672.0520948 906.10632254 -676.25610696 901.9736499 -680.44140625 897.765625 C-681.15748047 897.05341797 -681.87355469 896.34121094 -682.61132812 895.60742188 C-686.65363625 891.55775741 -690.51554197 887.41043032 -694.25073242 883.07641602 C-696.68067258 880.2806549 -699.22036085 877.59210729 -701.75390625 874.890625 C-707.05193589 869.1884804 -712.02364651 863.28849249 -716.87890625 857.203125 C-717.7998181 856.07343292 -718.72174736 854.94456968 -719.64453125 853.81640625 C-739.50548333 829.4263408 -756.67890933 803.09748861 -771.65380859 775.45654297 C-772.85820372 773.24120478 -774.08086714 771.03668227 -775.3046875 768.83203125 C-807.27037737 710.50743352 -823.15330494 643.13702433 -823.06640625 576.828125 C-823.06546967 575.90082581 -823.06453308 574.97352661 -823.06356812 574.01812744 C-822.92011453 508.30225249 -806.11447127 445.83515003 -776.87890625 387.203125 C-776.42112793 386.28354004 -775.96334961 385.36395508 -775.49169922 384.41650391 C-765.47882342 364.45298956 -753.92235399 345.33308112 -740.87890625 327.203125 C-740.34297852 326.45611328 -739.80705078 325.70910156 -739.25488281 324.93945312 C-731.170149 313.71398701 -722.75992582 302.80939409 -713.87890625 292.203125 C-713.37117676 291.59629883 -712.86344727 290.98947266 -712.34033203 290.36425781 C-705.63415682 282.38061332 -698.70781505 274.62493999 -691.57714844 267.01904297 C-689.6837213 264.99441516 -687.80099626 262.96008315 -685.91796875 260.92578125 C-679.5174822 254.03689205 -673.14961091 247.28108607 -666.04296875 241.11328125 C-663.85292863 239.1801953 -661.80125239 237.16104279 -659.75390625 235.078125 C-655.9611 231.24016629 -651.9790145 227.70783799 -647.87890625 224.203125 C-646.86028044 223.3207702 -645.84208488 222.43791855 -644.82421875 221.5546875 C-599.13064338 182.00350546 -548.6090598 149.22483653 -495.4765625 120.60400391 C-493.82108696 119.7112296 -492.16725638 118.81539345 -490.515625 117.91552734 C-476.57070066 110.31987879 -462.23684399 103.59898337 -447.77209473 97.0592041 C-446.51478176 96.49066094 -445.25786078 95.92125006 -444.00134277 95.35095215 C-359.95628 57.21124911 -270.43528635 31.52733807 -54.765625 1.96484375 C-53.87352829 1.90158905 -52.98143158 1.83833435 -52.06230164 1.77316284 C-34.70864699 0.59906925 -17.39133157 0.03707037 0 0 Z M2.18359375 55.953125 C0.95977997 56.01697891 0.95977997 56.01697891 -0.28875732 56.0821228 C-47.88048249 58.63803658 -94.8164833 67.63990621 -139.87890625 83.203125 C-140.8942041 83.54811035 -141.90950195 83.8930957 -142.95556641 84.24853516 C-166.30147377 92.21258123 -188.81041843 102.20175371 -210.87890625 113.203125 C-211.8328125 113.6465625 -212.78671875 114.09 -213.76953125 114.546875 C-216.77231857 116.90461912 -217.8868934 119.60897426 -218.87890625 123.203125 C-219.306885 127.240881 -219.27972118 131.25331585 -219.25363636 135.31061745 C-219.25769709 136.5345138 -219.26175781 137.75841016 -219.26594159 139.01939428 C-219.27417895 142.41949271 -219.26896735 145.81909057 -219.25810755 149.21914989 C-219.24959886 152.91697437 -219.25849033 156.61476362 -219.26517171 160.31258619 C-219.27447268 166.79439829 -219.27260392 173.2761329 -219.26343918 179.75794411 C-219.24984853 189.39642152 -219.2534017 199.03483931 -219.26039778 208.67332103 C-219.27233191 225.88590054 -219.26723379 243.09844346 -219.25511951 260.31102096 C-219.244591 275.37261692 -219.24004304 290.43420041 -219.24141502 305.49580002 C-219.24149905 306.49414925 -219.24158308 307.49249847 -219.24166966 308.52110071 C-219.2420219 312.57351431 -219.24240591 316.62592791 -219.24283524 320.6783415 C-219.24680174 358.70523698 -219.23407526 396.73211038 -219.21330868 434.75899954 C-219.19493593 468.5613438 -219.18912697 502.36366691 -219.19458008 536.16601562 C-219.19492651 538.33668 -219.19527261 540.50734438 -219.19561837 542.67800875 C-219.19578936 543.75113227 -219.19596036 544.82425579 -219.19613654 545.9298982 C-219.19699005 551.33158997 -219.19781384 556.73328175 -219.19860554 562.13497353 C-219.19876262 563.20058992 -219.1989197 564.26620632 -219.19908154 565.36411412 C-219.20306913 593.59094857 -219.19759939 621.81778098 -219.18909425 650.0446142 C-219.18818719 653.08082405 -219.18728154 656.11703391 -219.18637901 659.15324376 C-219.1857779 661.16747138 -219.18516928 663.18169899 -219.18455311 665.1959266 C-219.18032748 679.25289069 -219.17975524 693.30985077 -219.1816586 707.36681529 C-219.18409864 725.47809596 -219.18005333 743.58935517 -219.1644486 761.70062996 C-219.1563821 771.28440601 -219.15380878 780.86814632 -219.15909095 790.45192452 C-219.16205871 796.84633975 -219.15779583 803.24072329 -219.14754238 809.63513094 C-219.14189359 813.28312203 -219.13944459 816.93104003 -219.14570896 820.57903178 C-219.15236432 824.50183537 -219.14368362 828.42451706 -219.13338184 832.34731483 C-219.13777833 833.4889119 -219.14217481 834.63050896 -219.14670452 835.80669987 C-219.14144126 836.84963656 -219.136178 837.89257326 -219.13075525 838.96711409 C-219.13039599 839.86446425 -219.13003673 840.76181441 -219.12966659 841.686357 C-218.75737773 845.42285174 -217.75879642 848.25805778 -215.19140625 851.015625 C-211.83585622 852.73874529 -209.5987326 852.72520589 -205.87890625 852.203125 C-200.11952821 847.96772792 -198.56294805 841.92167006 -196.2890625 835.36328125 C-195.86816345 834.18647797 -195.4472644 833.00967468 -195.01361084 831.79721069 C-194.11220379 829.271503 -193.21601853 826.74464156 -192.32852173 824.21408081 C-190.9300313 820.22690834 -189.51212358 816.24682315 -188.09057617 812.26782227 C-186.66503975 808.27510751 -185.2404834 804.28206656 -183.8228302 800.2865448 C-180.18806776 790.04262567 -176.4703547 779.83209366 -172.69140625 769.640625 C-171.86144625 767.39577614 -171.03216516 765.15067716 -170.20288086 762.90557861 C-169.64269926 761.38918705 -169.08231481 759.87287042 -168.52172852 758.35662842 C-164.8153146 748.33106959 -161.12774345 738.29857998 -157.44140625 728.265625 C-157.0705188 727.25624878 -156.69963135 726.24687256 -156.31750488 725.20690918 C-146.96713682 699.75418925 -137.67689248 674.27951216 -128.38282585 648.80619717 C-123.94612358 636.64607133 -119.50766819 624.48658634 -115.06640625 612.328125 C-114.67877106 611.2669043 -114.29113586 610.20568359 -113.89175415 609.11230469 C-107.95821145 592.8705608 -102.00056437 576.6377715 -96.03231812 560.40875244 C-89.20374516 541.83788845 -82.41599671 523.25224614 -75.63502502 504.66396713 C-68.71520773 485.6953702 -61.77589706 466.73414412 -54.80517578 447.78417969 C-48.30127106 430.10086065 -41.83597902 412.40358036 -35.37890625 394.703125 C-28.56653779 376.02871507 -21.74105942 357.35931636 -14.87890625 338.703125 C-8.23459126 320.63558359 -1.61104548 302.56050285 4.99584961 284.47924805 C6.02880958 281.65237958 7.0623543 278.82572606 8.09643555 275.99926758 C9.31421761 272.67055162 10.5307093 269.34136684 11.74623299 266.01182556 C12.4079983 264.20000693 13.07097544 262.38863107 13.73399353 260.57727051 C14.13687088 259.47282593 14.53974823 258.36838135 14.95483398 257.23046875 C15.52208694 255.68588989 15.52208694 255.68588989 16.10079956 254.11010742 C17.28353518 250.7403032 18.28725636 247.33356275 19.20252991 243.88183594 C20.12109375 242.203125 20.12109375 242.203125 22.25071716 241.140625 C25.72997813 240.1721736 28.45301245 240.07241344 31.99609375 240.765625 C36.54904445 243.84556224 38.05060348 249.29308248 39.84375 254.28125 C40.10062592 254.98251511 40.35750183 255.68378021 40.62216187 256.40629578 C41.48074036 258.75352806 42.3320691 261.10332547 43.18359375 263.453125 C43.80358857 265.15196734 44.42412728 266.85061127 45.04516602 268.54907227 C46.38030267 272.20199758 47.71289094 275.85583922 49.04394531 279.51025391 C51.09786841 285.14495826 53.16613926 290.77431765 55.23828125 296.40234375 C66.42116349 326.78093164 77.52171788 357.18946253 88.61717415 387.60005283 C93.05387642 399.76017867 97.49233181 411.91966366 101.93359375 424.078125 C102.32122894 425.1393457 102.70886414 426.20056641 103.10824585 427.29394531 C109.04178855 443.5356892 114.99943563 459.7684785 120.96768188 475.99749756 C127.79625484 494.56836155 134.58400329 513.15400386 141.36497498 531.74228287 C147.92949159 549.73692989 154.50828606 567.72615167 161.12109375 585.703125 C168.23375195 605.03894616 175.30518503 624.38963568 182.36578369 643.74450684 C188.93002287 661.73841585 195.50871255 679.72683507 202.12109375 697.703125 C208.71252793 715.6237329 215.27389551 733.55518367 221.82013702 751.49233627 C222.79817279 754.17204474 223.77645995 756.8516614 224.75473785 759.53128147 C229.2706498 771.90125764 233.78388803 784.27219069 238.28523254 796.6474762 C240.02702583 801.43513472 241.77083582 806.22205736 243.5149231 811.00888062 C244.32427939 813.23199738 245.13263825 815.45547757 245.93991089 817.67935181 C248.30615096 824.19765111 250.6897144 830.70881421 253.12109375 837.203125 C253.37725464 837.89005432 253.63341553 838.57698364 253.89733887 839.284729 C254.5477176 841.00948874 255.22002177 842.72593967 255.89453125 844.44140625 C256.23661621 845.31450439 256.57870117 846.18760254 256.93115234 847.0871582 C258.3381501 849.58909697 259.66255017 850.74193696 262.12109375 852.203125 C266.25979848 852.80511841 268.29440237 852.75272845 271.80459923 850.41906881 C275.31039568 845.55204051 274.80851476 841.10787225 274.74750614 835.24802399 C274.75447375 834.01630508 274.76144136 832.78458617 274.7686201 831.51554245 C274.78293494 828.08387125 274.77474628 824.65356722 274.75723016 821.22199725 C274.74367729 817.49373459 274.75904907 813.76557484 274.77078098 810.03732157 C274.78732672 803.49896647 274.78520218 796.96082186 274.77095413 790.42246437 C274.749825 780.69990521 274.75720758 770.97751457 274.77032935 761.25494884 C274.79281428 743.8927002 274.78677418 726.53054873 274.76889325 709.16829996 C274.75334206 693.97456194 274.74746941 678.78085804 274.75123405 663.58711243 C274.75147086 662.58030764 274.75170766 661.57350285 274.75195163 660.53618883 C274.75292652 656.4495109 274.75394732 652.36283298 274.75503674 648.27615508 C274.76512578 609.91933183 274.74683812 571.56256853 274.71531638 533.20575938 C274.68745454 499.10834311 274.68249151 465.01099814 274.69750977 430.91357422 C274.70133202 422.18298598 274.70512677 413.45239774 274.70868015 404.72180939 C274.70911797 403.64705968 274.70955578 402.57230996 274.71000686 401.46499208 C274.72123992 372.99571713 274.71390274 344.52644744 274.70079941 316.05717421 C274.6994108 312.9948032 274.69803009 309.93243219 274.69666099 306.87006117 C274.6957516 304.83845958 274.69482893 302.80685799 274.69389288 300.77525641 C274.68708936 285.5889588 274.68976401 270.40268177 274.69684029 255.21638489 C274.70479623 237.95343661 274.69827887 220.69056016 274.67266525 203.42762768 C274.65871234 193.75939787 274.65578913 184.0913126 274.66859995 174.42308037 C274.6760381 167.97228826 274.66902482 161.52161834 274.65004184 155.07085009 C274.63961607 151.39057001 274.63559909 147.71058171 274.64902038 144.03030473 C274.66329367 140.07278158 274.64689383 136.11573435 274.62725163 132.15822601 C274.63633044 131.00643118 274.64540926 129.85463635 274.65476319 128.66793865 C274.63033415 122.56367398 274.63033415 122.56367398 272.24674648 117.05883646 C269.85259042 114.96871949 267.57105312 113.53980179 264.73046875 112.109375 C263.64572266 111.56071777 262.56097656 111.01206055 261.44335938 110.44677734 C260.26451172 109.87137207 259.08566406 109.2959668 257.87109375 108.703125 C257.2577417 108.40110168 256.64438965 108.09907837 256.01245117 107.78790283 C177.71169576 69.32380053 89.23629952 51.38204787 2.18359375 55.953125 Z M-358.69921875 120.80859375 C-359.79155571 121.22139336 -359.79155571 121.22139336 -360.90596008 121.64253235 C-363.27770859 122.54426777 -365.6408912 123.46626815 -368.00390625 124.390625 C-369.66664048 125.03152915 -371.32948372 125.67215054 -372.99243164 126.3125 C-388.14590826 132.18238689 -403.07199754 138.50789654 -417.87890625 145.203125 C-418.48311401 145.47535889 -419.08732178 145.74759277 -419.70983887 146.02807617 C-447.99262401 158.77625121 -475.75579941 172.64152521 -502.33447266 188.66992188 C-504.64782812 190.06388391 -506.97036314 191.44065842 -509.296875 192.8125 C-535.59222473 208.45168129 -561.06610498 226.00264549 -584.87890625 245.203125 C-586.29042969 246.34007812 -586.29042969 246.34007812 -587.73046875 247.5 C-590.46025345 249.71844174 -593.17352611 251.95499221 -595.87890625 254.203125 C-596.64219238 254.83686035 -596.64219238 254.83686035 -597.42089844 255.48339844 C-604.86399601 261.6776845 -612.08816007 268.05844057 -619.18188477 274.6496582 C-620.46942645 275.82828398 -621.76897879 276.99380561 -623.07397461 278.15307617 C-629.12499179 283.53155866 -634.93658041 289.10474901 -640.64819336 294.84204102 C-642.07228117 296.27152217 -643.50168669 297.69553011 -644.93164062 299.11914062 C-650.12484779 304.31958571 -655.11315101 309.61028589 -659.87890625 315.203125 C-660.92399022 316.39480226 -661.97084631 317.5849279 -663.01953125 318.7734375 C-715.28895093 378.39013108 -760.99872598 458.01134107 -765.25390625 538.765625 C-764.81277041 542.80937017 -763.76877345 544.3982539 -760.87890625 547.203125 C-757.71877823 548.78318901 -754.32204001 548.35484479 -750.85148621 548.35702515 C-750.0120934 548.3614074 -749.17270059 548.36578965 -748.30787164 548.3703047 C-745.47892719 548.38372101 -742.65001391 548.38987788 -739.82104492 548.39599609 C-737.79933022 548.40389476 -735.77761694 548.41216356 -733.75590515 548.42077637 C-727.10290885 548.44702123 -720.44990617 548.46230532 -713.796875 548.4765625 C-711.50936694 548.48192095 -709.22185893 548.48729845 -706.93435097 548.49269485 C-697.42174291 548.51432616 -687.90913656 548.53306441 -678.39651012 548.54431725 C-664.74862471 548.56056632 -651.10102357 548.59376466 -637.45324534 548.65071809 C-627.86509574 548.68937095 -618.27702231 548.70894436 -608.68879682 548.71423781 C-602.95799754 548.71789731 -597.22750129 548.72998246 -591.49678612 548.76234055 C-586.10656847 548.79233955 -580.71683849 548.79876213 -575.32655525 548.78695679 C-573.34680238 548.78673538 -571.3670274 548.79509604 -569.38735199 548.81261063 C-566.68673529 548.83520544 -563.98790148 548.82705291 -561.28727722 548.81112671 C-560.50167032 548.8250088 -559.71606342 548.83889088 -558.90665025 548.85319364 C-554.91335325 548.79506777 -553.08216972 548.36265827 -549.90245533 545.86702919 C-547.30476791 542.44729973 -547.11621876 540.29323168 -546.81640625 536.015625 C-546.67849134 534.40341171 -546.53759642 532.79145193 -546.39453125 531.1796875 C-546.31783203 530.25317383 -546.24113281 529.32666016 -546.16210938 528.37207031 C-538.23178033 439.63442284 -511.40602311 353.43022264 -464.87890625 277.203125 C-464.19489746 276.08236572 -464.19489746 276.08236572 -463.49707031 274.93896484 C-448.88229747 251.13102844 -432.60056258 228.15155476 -414.30078125 207.0234375 C-412.03083284 204.38004597 -409.8577951 201.68147186 -407.69140625 198.953125 C-397.58894042 186.595803 -386.13742962 175.37144571 -374.87890625 164.078125 C-374.39049255 163.58703247 -373.90207886 163.09593994 -373.39886475 162.58996582 C-367.73415302 156.90165014 -361.98220661 151.41661467 -355.87890625 146.203125 C-353.33714603 143.92392825 -350.80759007 141.63258432 -348.28515625 139.33203125 C-346.18804841 137.47663552 -344.03464646 135.78271533 -341.81640625 134.078125 C-339.26100341 131.88084275 -338.83595452 131.08286016 -337.62890625 127.703125 C-337.63860812 124.0566092 -337.63860812 124.0566092 -339.81640625 120.765625 C-343.14705129 117.97875875 -344.50101873 117.8083244 -348.72235107 117.95401001 C-352.24082885 118.36044782 -355.4282846 119.52051577 -358.69921875 120.80859375 Z M396.12109375 120.203125 C394.04315461 122.73279005 394.12092653 124.21198772 394.05859375 127.515625 C396.33723014 135.42383366 404.1757854 139.90734345 410.3515625 144.875 C413.69742725 147.68760281 416.73946176 150.70971438 419.7578125 153.8671875 C421.7367874 155.82326517 423.74980958 157.63449515 425.85546875 159.44921875 C430.32464324 163.32669386 434.51251425 167.4468971 438.68359375 171.640625 C439.75770508 172.70893555 439.75770508 172.70893555 440.85351562 173.79882812 C444.90596678 177.85865408 448.77954002 182.0161169 452.52416992 186.36108398 C454.78730913 188.97160001 457.14122165 191.48749654 459.49609375 194.015625 C464.61114602 199.5597777 469.40736913 205.31291704 474.12109375 211.203125 C475.0434975 212.33396457 475.96671571 213.46414015 476.890625 214.59375 C503.152382 246.84411227 525.84892955 282.54021811 544.02441406 319.95214844 C544.79734166 321.53861159 545.5758633 323.12235533 546.35839844 324.70410156 C575.94873982 384.52089989 595.38049825 450.83407211 600.953125 517.46484375 C601.0171048 518.22277725 601.08108459 518.98071075 601.14700317 519.76161194 C601.44835659 523.39700862 601.72385393 527.03177473 601.95800781 530.67211914 C602.05436523 531.96625732 602.15072266 533.26039551 602.25 534.59375 C602.3229126 535.72844727 602.3958252 536.86314453 602.47094727 538.03222656 C603.25268859 541.84494015 604.73816817 544.15401423 607.12109375 547.203125 C610.2814884 548.78332232 613.67788897 548.35110361 617.14851379 548.35029602 C617.9879066 548.35397271 618.82729941 548.3576494 619.69212836 548.3614375 C622.52107669 548.37250149 625.34998832 548.37632275 628.17895508 548.38012695 C630.20066953 548.3863895 632.22238283 548.39303611 634.24409485 548.40003967 C639.74826482 548.41746761 645.25242609 548.4280061 650.75661683 548.4362452 C654.19296245 548.44139103 657.62930534 548.44746692 661.06564903 548.45375633 C671.81004388 548.4728125 682.55443184 548.48704333 693.29884034 548.4953683 C705.71489203 548.5051465 718.13076572 548.53147954 730.54675466 548.57186919 C740.13490574 548.60199305 749.72300568 548.61683359 759.31120318 548.62014931 C765.04195365 548.62250386 770.77251404 548.63151697 776.50321388 548.65661049 C781.89338385 548.67983126 787.28323779 548.68414859 792.67344475 548.67384911 C794.65318984 548.67335219 796.63295017 548.67971827 798.61264801 548.69340515 C801.31305487 548.71103203 804.01231621 548.70406358 806.71272278 548.69087219 C807.49832968 548.70184144 808.28393658 548.71281068 809.09334975 548.72411233 C812.76013531 548.68079107 814.93491132 548.3173003 818.08777905 546.38382244 C821.04262944 543.21479274 821.25169752 540.36216555 821.12109375 536.203125 C820.64681568 531.51653839 819.87869542 526.90294326 819.05859375 522.265625 C818.88629242 521.27412949 818.88629242 521.27412949 818.71051025 520.26260376 C812.82649124 486.49356123 802.89590169 454.15695816 788.12109375 423.203125 C787.39986328 421.68235352 787.39986328 421.68235352 786.6640625 420.13085938 C769.04457785 383.24151618 745.73704046 348.49055339 718.078125 318.33984375 C716.3259789 316.42682196 714.62408609 314.48297217 712.93359375 312.515625 C702.14015958 300.14449627 690.83639637 287.79661926 678.3359375 277.13671875 C676.00807126 275.10445457 673.75010683 273.00984996 671.49243164 270.90039062 C665.23735006 265.05977508 658.80076121 259.5573232 652.12109375 254.203125 C650.89334278 253.19676068 649.66686009 252.18884779 648.44140625 251.1796875 C580.60410638 195.41335022 501.80336274 154.12051669 419.99609375 122.953125 C418.16353027 122.25364746 418.16353027 122.25364746 416.29394531 121.54003906 C415.16182617 121.11432617 414.02970703 120.68861328 412.86328125 120.25 C411.37610596 119.69070801 411.37610596 119.69070801 409.85888672 119.12011719 C404.11555214 117.19645349 401.40830496 116.79581111 396.12109375 120.203125 Z M-298.62890625 170.890625 C-299.86489689 171.97248457 -301.10188536 173.05320516 -302.33984375 174.1328125 C-303.24428223 174.92316895 -303.24428223 174.92316895 -304.16699219 175.72949219 C-306.48024755 177.72076563 -308.86434989 179.61697448 -311.25390625 181.515625 C-323.19407433 191.25810997 -334.03875459 202.27145975 -344.94140625 213.140625 C-345.43427124 213.63081116 -345.92713623 214.12099731 -346.43493652 214.6260376 C-352.13697665 220.30451951 -357.66832326 226.06721291 -362.87890625 232.203125 C-363.85183956 233.32120528 -364.82576554 234.4384227 -365.80078125 235.5546875 C-372.75148588 243.57818138 -379.44607881 251.75871558 -385.87890625 260.203125 C-386.67119629 261.24049805 -386.67119629 261.24049805 -387.47949219 262.29882812 C-441.70563661 333.65068424 -476.62069473 418.58460205 -489.87890625 517.203125 C-490.02618164 518.39534668 -490.17345703 519.58756836 -490.32519531 520.81591797 C-490.70620457 524.02603574 -491.05334408 527.23695747 -491.37890625 530.453125 C-491.48058105 531.36940674 -491.58225586 532.28568848 -491.68701172 533.22973633 C-492.13978252 538.4068782 -491.92605465 541.7432078 -488.87890625 546.203125 C-485.10077421 548.7218797 -482.10782011 548.4906696 -477.73123169 548.47727966 C-476.89098446 548.48251634 -476.05073723 548.48775302 -475.18502796 548.49314839 C-472.35914416 548.50819424 -469.53344069 548.50885454 -466.70751953 548.50952148 C-464.68565564 548.51713986 -462.66379467 548.5255668 -460.64193726 548.53474426 C-455.14194904 548.55672726 -449.64201642 548.56549322 -444.14198923 548.57057071 C-440.70781065 548.57420965 -437.27364673 548.58044727 -433.83947372 548.5875721 C-421.86449287 548.61207933 -409.88955543 548.62512135 -397.91455078 548.62866211 C-386.74287996 548.63229887 -375.57148363 548.66220116 -364.39989674 548.70406669 C-354.8159637 548.73872658 -345.23212181 548.7542098 -335.64812648 548.75490814 C-329.92070991 548.7557024 -324.19357281 548.76450912 -318.46622086 548.79290581 C-313.08007505 548.8190128 -307.69444187 548.82133279 -302.30826187 548.80525017 C-300.33012783 548.80342983 -298.3519648 548.81017885 -296.37389374 548.82606888 C-293.67549996 548.84642576 -290.97891737 548.83603952 -288.2805481 548.81785583 C-287.49562331 548.8310558 -286.71069853 548.84425577 -285.90198815 548.85785574 C-281.90391117 548.7962132 -280.08733772 548.36852209 -276.91630363 545.85220432 C-273.84332652 541.85663615 -273.75292163 538.95846923 -273.74747849 534.05390358 C-273.74363734 532.75867417 -273.7397962 531.46344476 -273.73583865 530.12896597 C-273.73661894 528.68311471 -273.73749774 527.2372635 -273.73846436 525.79141235 C-273.73588154 524.26208495 -273.73286862 522.73275823 -273.72946095 521.20343244 C-273.72137797 516.98987629 -273.71960066 512.77633717 -273.71886349 508.56277418 C-273.71701521 504.0228069 -273.70946908 499.48284851 -273.70272827 494.94288635 C-273.68913575 485.01122805 -273.68311895 475.07957379 -273.67871761 465.14790773 C-273.67595705 458.94982473 -273.67172007 452.75174329 -273.66721344 446.55366135 C-273.65502015 429.40197917 -273.64472058 412.25029825 -273.64133835 395.09861183 C-273.64111878 394.00049123 -273.64089922 392.90237063 -273.640673 391.77097365 C-273.64045472 390.67018954 -273.64023644 389.56940543 -273.64001155 388.43526423 C-273.63956808 386.20456417 -273.63912152 383.97386412 -273.63867188 381.74316406 C-273.63845045 380.63665404 -273.63822902 379.53014402 -273.63800088 378.39010338 C-273.63405109 360.45227553 -273.61659185 342.51448826 -273.59331235 324.57667609 C-273.56961925 306.17204338 -273.55713745 287.76743105 -273.55597043 269.36278284 C-273.55505258 259.02442171 -273.54927258 248.68611347 -273.53115082 238.34776688 C-273.51577743 229.54619171 -273.51061304 220.74468578 -273.51888892 211.94309975 C-273.52280509 207.45036614 -273.52181885 202.95777206 -273.50783157 198.46505547 C-273.49515056 194.35442552 -273.49623876 190.24404078 -273.50842229 186.13341145 C-273.51038938 184.64418686 -273.50725443 183.15494524 -273.49857792 181.66574462 C-273.48754844 179.64520081 -273.49673057 177.62457667 -273.50696945 175.6040287 C-273.50607382 173.91880102 -273.50607382 173.91880102 -273.50516009 172.19952834 C-274.03824397 167.92568023 -275.70255215 165.30358529 -278.81640625 162.390625 C-285.96630411 158.27401714 -293.54868579 166.37013881 -298.62890625 170.890625 Z M332.12109375 164.203125 C329.89340198 167.60850307 329.86969968 170.49338065 329.86661816 174.50662899 C329.86078596 175.81081624 329.85495377 177.11500349 329.84894484 178.45871156 C329.85257819 179.90948148 329.85640257 181.36025093 329.86039734 182.8110199 C329.85737789 184.34946108 329.85348944 185.88790076 329.84880477 187.42633778 C329.83848946 191.66046009 329.84071555 195.89449807 329.84498537 200.12862742 C329.84744619 204.69244027 329.83844647 209.25623248 329.83094788 213.82003784 C329.81818102 222.76342696 329.81640964 231.70678608 329.81874814 240.65018278 C329.82052919 247.91740189 329.81878624 255.18461189 329.8145237 262.45182991 C329.81392851 263.48505408 329.81333332 264.51827825 329.81272009 265.58281224 C329.81150838 267.68161845 329.81029424 269.78042466 329.80907772 271.87923086 C329.79819459 291.57365581 329.80036837 311.26806364 329.80646256 330.96248955 C329.81163278 348.99078802 329.80037487 367.01903246 329.78136434 385.04732024 C329.76200597 403.54690915 329.7537264 422.04647248 329.7574876 440.54607159 C329.75940264 450.93695132 329.75688264 461.32778506 329.74277306 471.71865654 C329.73088377 480.56412981 329.72942675 489.40952878 329.74156322 498.25500303 C329.74746911 502.77001766 329.74850433 507.28489624 329.73656082 511.79990196 C329.72576002 515.93085225 329.72873568 520.06155195 329.74282251 524.19249023 C329.74548552 525.68908484 329.74305294 527.18569873 329.73508664 528.68227451 C329.72502625 530.71275485 329.73516624 532.74330548 329.74636364 534.77377987 C329.74630862 535.90279844 329.74625361 537.03181702 329.74619693 538.19504827 C330.17220796 541.61325243 331.06723168 543.45921971 333.12109375 546.203125 C336.89178071 548.71691631 339.86374882 548.48776982 344.23080444 548.47055054 C345.06696812 548.47508165 345.9031318 548.47961276 346.76463377 548.48428118 C349.57670598 548.49697835 352.38858583 548.4953014 355.20068359 548.49365234 C357.21269481 548.49963428 359.22470372 548.50643904 361.23670959 548.51400757 C366.70984584 548.53170887 372.18291958 548.53636468 377.65608168 548.53763914 C382.22131566 548.53953583 386.78653501 548.54689071 391.35176337 548.55398333 C402.12058413 548.57028058 412.88937145 548.57515106 423.65820312 548.57373047 C434.77530395 548.57252867 445.89221074 548.5936351 457.00926244 548.6252178 C466.54648644 548.6513491 476.08364694 548.66209909 485.62090647 548.66081965 C491.32033198 548.66030909 497.01958514 548.66604404 502.71897507 548.68717575 C508.07880522 548.70650514 513.43829768 548.7067189 518.79813957 548.69214249 C520.76659194 548.6900467 522.73506515 548.69480088 524.70348167 548.7068634 C527.38852624 548.72225313 530.07239727 548.71304961 532.75741577 548.69760132 C533.92896652 548.71303201 533.92896652 548.71303201 535.12418497 548.72877443 C538.83675635 548.68149299 540.92835659 548.32721627 544.08132362 546.29722023 C547.89921068 542.37765156 547.30337949 539.00758984 547.25488281 533.74804688 C547.01699544 527.44489964 546.28008647 521.20803541 545.49609375 514.953125 C545.40839722 514.2427005 545.32070068 513.532276 545.23034668 512.80032349 C537.7023638 452.40811099 519.47972547 394.52517236 492.12109375 340.203125 C491.3940625 338.74737061 491.3940625 338.74737061 490.65234375 337.26220703 C477.38233775 310.79288043 461.32141382 285.56129751 443.12109375 262.203125 C442.7044043 261.66316895 442.28771484 261.12321289 441.85839844 260.56689453 C432.66603614 248.65571173 423.07197801 237.1702567 412.82421875 226.15234375 C410.80062278 223.97038923 408.85307658 221.73388413 406.9140625 219.4765625 C402.55704475 214.47894602 397.88063113 209.81652043 393.18359375 205.140625 C392.32830078 204.28146484 391.47300781 203.42230469 390.59179688 202.53710938 C386.13440932 198.0865218 381.61356183 193.7799702 376.8347168 189.67602539 C374.67426396 187.819064 372.58869658 185.88592907 370.49609375 183.953125 C364.79243803 178.80399137 358.77494029 174.09779862 352.68652344 169.41748047 C351.3302251 168.36535509 349.99329347 167.28835366 348.66015625 166.20703125 C343.06949966 161.74093202 338.38563439 159.15668949 332.12109375 164.203125 Z M21.12109375 403.203125 C17.77350013 409.34188915 15.5761593 416.1740795 13.20703125 422.734375 C12.84036346 423.74135941 12.47369568 424.74834381 12.09591675 425.7858429 C11.30624993 427.95557052 10.51801478 430.12581964 9.7310791 432.29653931 C8.03576124 436.97290697 6.33350503 441.64673997 4.63171387 446.320755 C3.75090449 448.7401299 2.87045518 451.15963591 1.99035645 453.57926941 C-1.83323155 464.0891324 -5.68694382 474.58774965 -9.54974365 485.08325195 C-17.10892995 505.62358036 -24.62192487 526.18060922 -32.12278748 546.74228287 C-38.68730425 564.73693031 -45.26625271 582.7260947 -51.87890625 600.703125 C-58.71817843 619.29754797 -65.52445498 637.90387941 -72.31640625 656.515625 C-72.56056149 657.18465096 -72.80471672 657.85367691 -73.0562706 658.54297638 C-75.49608414 665.22849949 -77.9355986 671.9141317 -80.3749094 678.59983826 C-84.81163202 690.76003759 -89.25011823 702.91959226 -93.69140625 715.078125 C-94.07904144 716.1393457 -94.46667664 717.20056641 -94.86605835 718.29394531 C-100.79960105 734.5356892 -106.75724813 750.7684785 -112.72549438 766.99749756 C-119.55406734 785.56836155 -126.34181579 804.15400386 -133.12278748 822.74228287 C-140.04260477 841.7108798 -146.98191544 860.67210588 -153.95263672 879.62207031 C-160.45654157 897.30538969 -166.92175405 915.00269839 -173.37890625 932.703125 C-180.525735 952.29376901 -187.68522489 971.8796199 -194.87890625 991.453125 C-195.24040771 992.43676025 -195.60190918 993.42039551 -195.97436523 994.43383789 C-196.67087602 996.32872624 -197.36768569 998.22350477 -198.06481934 1000.11816406 C-198.72225861 1001.90723222 -199.37799553 1003.69692706 -200.03186035 1005.48730469 C-201.63281589 1009.86309875 -203.26751846 1014.22113625 -204.96484375 1018.56054688 C-205.29718018 1019.42339294 -205.6295166 1020.28623901 -205.97192383 1021.17523193 C-206.59797657 1022.79755356 -207.23508273 1024.41567263 -207.88549805 1026.02838135 C-209.57011442 1030.4292888 -210.47434176 1033.55867206 -208.87890625 1038.203125 C-206.3925432 1041.31682713 -203.73113799 1043.02577339 -200.1796875 1044.76171875 C-199.23528809 1045.22336426 -198.29088867 1045.68500977 -197.31787109 1046.16064453 C-196.2861377 1046.64903809 -195.2544043 1047.13743164 -194.19140625 1047.640625 C-193.09779785 1048.15995605 -192.00418945 1048.67928711 -190.87744141 1049.21435547 C-115.32432713 1084.44719629 -31.95429744 1100.13826298 208.98010254 1064.98815918 C223.66658005 1059.60308951 238.01454079 1053.31907351 252.18359375 1046.703125 C253.04073975 1046.30593262 253.89788574 1045.90874023 254.78100586 1045.49951172 C260.70656269 1042.78816586 260.70656269 1042.78816586 265.12109375 1038.203125 C265.95586862 1030.57289178 263.3917103 1024.43280533 260.72265625 1017.36328125 C260.25556565 1016.09798932 259.7896411 1014.83226641 259.32479858 1013.56614685 C258.07371167 1010.1680718 256.80702761 1006.7760078 255.53747559 1003.38479614 C254.20283433 999.81087885 252.88331415 996.23138892 251.5625 992.65234375 C249.42533591 986.86602137 247.28066765 981.08254224 245.12988281 975.30126953 C241.44902529 965.40536466 237.81079703 955.49393663 234.17669678 945.58078003 C233.11034539 942.67382415 232.04206127 939.76758574 230.97314453 936.86157227 C224.57757868 919.47256034 218.22599898 902.06757547 211.87640381 884.66174316 C205.31216479 866.66783458 198.73362909 848.67935797 192.12109375 830.703125 C185.00843555 811.36730384 177.93700247 792.01661432 170.87640381 772.66174316 C164.31216463 754.66783415 157.73347495 736.67941493 151.12109375 718.703125 C144.28182157 700.10870203 137.47554502 681.50237059 130.68359375 662.890625 C130.3173609 661.88708607 130.3173609 661.88708607 129.9437294 660.86327362 C127.50391586 654.17775051 125.0644014 647.4921183 122.6250906 640.80641174 C118.18836798 628.64621241 113.74988177 616.48665774 109.30859375 604.328125 C108.92095856 603.2669043 108.53332336 602.20568359 108.13394165 601.11230469 C102.20039895 584.8705608 96.24275187 568.6377715 90.27450562 552.40875244 C84.19240851 535.86799072 78.1412047 519.3160696 72.10116577 502.75991821 C61.17103032 472.7978553 61.17103032 472.7978553 50.21044922 442.84692383 C49.45624725 440.7884544 48.70280015 438.7297082 47.95019531 436.6706543 C45.9853115 431.29588209 44.00614052 425.92696859 42.00018311 420.56738281 C41.14438129 418.26575545 40.30846028 415.95756147 39.47314453 413.6484375 C38.96240101 412.28082447 38.45059204 410.91360866 37.9375 409.546875 C37.29663452 407.80180664 37.29663452 407.80180664 36.64282227 406.02148438 C34.86875632 402.73577649 33.52798225 401.66372786 30.12109375 400.203125 C25.66575951 400.203125 24.49938478 400.4160349 21.12109375 403.203125 Z M-763.87890625 608.203125 C-772.88941811 626.22414873 -754.42616919 671.6229882 -748.59765625 689.1328125 C-737.62864376 721.23981953 -722.42166221 751.80113736 -703.87890625 780.203125 C-703.42338379 780.90163574 -702.96786133 781.60014648 -702.49853516 782.31982422 C-689.60443047 801.91638095 -674.94335671 820.36867833 -659.14453125 837.69140625 C-657.93957048 839.02725069 -656.73974992 840.36857777 -655.58178711 841.74536133 C-649.76005412 848.60791313 -643.34151979 854.89092177 -636.97290039 861.23950195 C-634.94627645 863.26076768 -632.92505078 865.28732074 -630.90429688 867.31445312 C-624.73446732 873.48779944 -618.58171232 879.60244822 -611.87890625 885.203125 C-610.78373853 886.15201202 -609.68996297 887.10250845 -608.59765625 888.0546875 C-541.71137866 945.81542738 -463.56357378 990.96021868 -360.11767578 1030.99438477 C-357.44500679 1031.99185078 -354.78875097 1033.02183907 -352.1328125 1034.0625 C-348.43770462 1035.35778391 -346.57383898 1035.46276116 -342.87890625 1034.203125 C-339.97492122 1032.08400079 -339.03645532 1030.69677877 -337.94140625 1027.265625 C-337.86308921 1023.42809 -338.64101303 1022.31181134 -340.87890625 1019.203125 C-343.08180157 1017.0282123 -345.4362957 1015.05552181 -347.81640625 1013.078125 C-359.65377048 1003.13118657 -370.73426401 992.5122035 -381.64428711 981.56811523 C-383.70247782 979.50452439 -385.76601605 977.44638825 -387.83007812 975.38867188 C-389.16568559 974.0524041 -390.50098309 972.71582643 -391.8359375 971.37890625 C-392.44025101 970.77661697 -393.04456451 970.1743277 -393.66719055 969.55378723 C-397.93328265 965.26456507 -401.93309086 960.78701584 -405.87890625 956.203125 C-406.8283375 955.12013757 -407.77866191 954.03793144 -408.73046875 952.95703125 C-415.94826252 944.68127983 -422.68850608 936.10447401 -429.28076172 927.32470703 C-430.82507314 925.27458997 -432.38298129 923.23562282 -433.9453125 921.19921875 C-446.3703825 904.93708378 -457.3276404 887.72663602 -467.87890625 870.203125 C-468.3682666 869.39101562 -468.85762695 868.57890625 -469.36181641 867.7421875 C-490.00277561 833.20787199 -506.11497921 796.31271741 -518.87890625 758.203125 C-519.26530273 757.05199219 -519.65169922 755.90085937 -520.04980469 754.71484375 C-534.3630028 711.57128934 -542.92980136 666.48375201 -546.35546875 621.17578125 C-546.42604492 620.33265381 -546.49662109 619.48952637 -546.56933594 618.62084961 C-546.73616195 616.54854396 -546.86820657 614.47351015 -546.99609375 612.3984375 C-548.13356992 608.28137772 -550.25747532 606.27253313 -553.87890625 604.203125 C-556.89681274 603.7215888 -559.3416585 603.52910615 -562.34938049 603.57493591 C-563.18810745 603.56784153 -564.0268344 603.56074714 -564.89097732 603.55343777 C-567.69414542 603.53587186 -570.49592436 603.553955 -573.29907227 603.57202148 C-575.31152985 603.56688217 -577.32398294 603.5596008 -579.33642578 603.55033875 C-584.7971453 603.53181945 -590.25737677 603.54476642 -595.71807599 603.56442904 C-601.43192444 603.58081007 -607.14574185 603.57200351 -612.85960388 603.56690979 C-622.4539266 603.5623886 -632.04805437 603.57826126 -641.64233398 603.60620117 C-652.73737172 603.6382622 -663.83205802 603.63823382 -674.92712075 603.6209864 C-685.59840528 603.60512832 -696.26956088 603.61184969 -706.94083977 603.62892342 C-711.48342251 603.63579908 -716.02590205 603.63475617 -720.56848335 603.62737846 C-725.91608924 603.61972297 -731.26329464 603.63181795 -736.61083221 603.65922737 C-738.57443236 603.66611963 -740.53806985 603.6662002 -742.50166893 603.65901184 C-745.1800329 603.65033594 -747.85715558 603.66624121 -750.53541565 603.6884613 C-751.31440312 603.68022054 -752.0933906 603.67197977 -752.89598376 603.66348928 C-757.83894804 603.73929721 -760.41848287 604.65487558 -763.87890625 608.203125 Z M-490.87890625 609.203125 C-491.6637832 612.72852741 -491.6637832 612.72852741 -491.3515625 616.59375 C-491.32675308 617.29719543 -491.30194366 618.00064087 -491.27638245 618.72540283 C-490.97523481 625.83445848 -490.23958749 632.90020177 -489.31640625 639.953125 C-489.23065338 640.62177582 -489.14490051 641.29042664 -489.05654907 641.9793396 C-478.01751342 727.28528633 -445.88600214 810.77206137 -394.87890625 880.203125 C-394.10160156 881.26402344 -393.32429688 882.32492187 -392.5234375 883.41796875 C-390.33407213 886.36683078 -388.11578425 889.29016124 -385.87890625 892.203125 C-385.26329834 893.0079834 -385.26329834 893.0079834 -384.63525391 893.82910156 C-372.58098022 909.54812813 -359.58223455 924.76672195 -345.41796875 938.62890625 C-343.8291692 940.25399817 -342.38803247 941.950928 -340.94140625 943.703125 C-338.22672317 946.93489058 -335.21712812 949.60175493 -332.00390625 952.328125 C-329.74751322 954.31906003 -327.66379082 956.42081516 -325.56640625 958.578125 C-321.49287586 962.70764894 -317.1491594 966.33834167 -312.62109375 969.95703125 C-310.006127 972.09891997 -307.53752432 974.33559847 -305.06640625 976.640625 C-301.08052721 980.25023706 -296.94948288 983.57106848 -292.62890625 986.765625 C-292.05035889 987.20769287 -291.47181152 987.64976074 -290.87573242 988.10522461 C-287.1033275 990.82766246 -284.52002488 991.91410488 -279.87890625 991.203125 C-276.77725856 988.65288135 -275.15324209 987.02613253 -273.87890625 983.203125 C-273.78369632 981.15606024 -273.7497539 979.10597333 -273.74747849 977.05669689 C-273.74363734 975.76208418 -273.7397962 974.46747147 -273.73583865 973.13362807 C-273.73661895 971.68846582 -273.73749774 970.24330362 -273.73846436 968.79814148 C-273.73588154 967.26952677 -273.73286861 965.74091274 -273.72946095 964.21229964 C-273.72137794 960.00067411 -273.71960066 955.7890656 -273.71886349 951.57743323 C-273.7170152 947.03949183 -273.70946903 942.50155932 -273.70272827 937.96362305 C-273.68913542 928.03602971 -273.68311881 918.1084404 -273.67871761 908.1808393 C-273.67595693 901.98475862 -273.67171991 895.7886795 -273.66721344 889.59259987 C-273.65501978 872.44520891 -273.64472049 855.29781921 -273.64133835 838.150424 C-273.64111878 837.05255496 -273.64089922 835.95468593 -273.640673 834.82354813 C-273.64045472 833.72301948 -273.64023644 832.62249083 -273.64001155 831.48861283 C-273.63956808 829.25844045 -273.63912152 827.02826808 -273.63867188 824.7980957 C-273.63845045 823.69184799 -273.63822902 822.58560028 -273.63800088 821.44582991 C-273.63405171 803.51514413 -273.6165945 785.58449897 -273.59331235 767.65382888 C-273.56961448 749.25484141 -273.55713722 730.85587432 -273.55597043 712.45687133 C-273.55505281 702.12239071 -273.54927872 691.787963 -273.53115082 681.45349693 C-273.51577097 672.6545122 -273.51061685 663.85559674 -273.51888892 655.05660113 C-273.52280287 650.56576885 -273.52182958 646.07507616 -273.50783157 641.58426094 C-273.49513731 637.47419552 -273.49625058 633.36437521 -273.50842229 629.25431035 C-273.51038707 627.76641384 -273.50726494 626.27850024 -273.49857792 624.7906278 C-273.48752322 622.76947234 -273.49674313 620.74823635 -273.50696945 618.72707653 C-273.50607382 617.04241843 -273.50607382 617.04241843 -273.50516009 615.32372683 C-274.00083506 611.18507769 -275.24197241 607.52940255 -278.55482674 604.84525967 C-282.04078323 603.88210264 -285.47658233 603.91783378 -289.06417847 603.92897034 C-289.89640745 603.92373366 -290.72863644 603.91849698 -291.58608449 603.91310161 C-294.3788899 603.89808201 -297.17151241 603.89739603 -299.96435547 603.89672852 C-301.96504018 603.8891084 -303.96572196 603.88068116 -305.96640015 603.87150574 C-311.40441488 603.84954044 -316.84237337 603.8407592 -322.28042746 603.83567929 C-325.67692961 603.83203839 -329.07341696 603.82579975 -332.46991348 603.8186779 C-344.3163747 603.79417721 -356.16279208 603.78112998 -368.00927734 603.77758789 C-379.05655033 603.77395123 -390.10354572 603.74404793 -401.15073383 603.70218331 C-410.63194352 603.66751107 -420.11306108 603.65203999 -429.59433377 603.65134186 C-435.25861146 603.65054806 -440.92260643 603.64176177 -446.5868187 603.61334419 C-451.91388671 603.58721598 -457.24043651 603.58492916 -462.56753922 603.60099983 C-464.5226784 603.60281844 -466.47784703 603.59608657 -468.43292236 603.58018112 C-471.10245331 603.55978721 -473.77015968 603.5702323 -476.43966675 603.58839417 C-477.59998864 603.56859421 -477.59998864 603.56859421 -478.78375137 603.54839426 C-484.58726381 603.63856801 -487.0389638 605.10974076 -490.87890625 609.203125 Z M332.12109375 607.203125 C329.90045379 610.61481383 329.86970188 613.49051449 329.86661816 617.50662899 C329.86078596 618.81081624 329.85495377 620.11500349 329.84894484 621.45871156 C329.85257819 622.90948148 329.85640257 624.36025093 329.86039734 625.8110199 C329.85737789 627.34946108 329.85348944 628.88790076 329.84880477 630.42633778 C329.83848946 634.66046009 329.84071555 638.89449807 329.84498537 643.12862742 C329.84744619 647.69244027 329.83844647 652.25623248 329.83094788 656.82003784 C329.81818102 665.76342696 329.81640964 674.70678608 329.81874814 683.65018278 C329.82052919 690.91740189 329.81878624 698.18461189 329.8145237 705.45182991 C329.81392851 706.48505408 329.81333332 707.51827825 329.81272009 708.58281224 C329.81150838 710.68161845 329.81029424 712.78042466 329.80907772 714.87923086 C329.79819459 734.57365581 329.80036837 754.26806364 329.80646256 773.96248955 C329.81163278 791.99078802 329.80037487 810.01903246 329.78136434 828.04732024 C329.76200597 846.54690915 329.7537264 865.04647248 329.7574876 883.54607159 C329.75940264 893.93695132 329.75688264 904.32778506 329.74277306 914.71865654 C329.73088377 923.56412981 329.72942675 932.40952878 329.74156322 941.25500303 C329.74746911 945.77001766 329.74850433 950.28489624 329.73656082 954.79990196 C329.72576002 958.93085225 329.72873568 963.06155195 329.74282251 967.19249023 C329.74548552 968.68908484 329.74305294 970.18569873 329.73508664 971.68227451 C329.72502625 973.71275485 329.73516624 975.74330548 329.74636364 977.77377987 C329.74630862 978.90279844 329.74625361 980.03181702 329.74619693 981.19504827 C330.17220796 984.61325243 331.06723168 986.45921971 333.12109375 989.203125 C336.64480639 991.55226676 337.97101942 991.680204 342.12109375 991.203125 C344.97880125 989.65252829 344.97880125 989.65252829 347.68359375 987.390625 C348.19390137 986.98972656 348.70420898 986.58882812 349.22998047 986.17578125 C350.87646048 984.87021121 352.5007901 983.54101235 354.12109375 982.203125 C354.66781738 981.75404785 355.21454102 981.3049707 355.77783203 980.84228516 C362.18779839 975.5525071 368.4464077 970.09796119 374.58911133 964.49975586 C376.16172887 963.07331547 377.74158751 961.65476416 379.33251953 960.2487793 C385.84360128 954.48184095 392.03651783 948.44200684 398.17211914 942.2824707 C399.81349171 940.63571096 401.46018194 938.99440405 403.10742188 937.35351562 C408.65568618 931.80906338 414.05114302 926.19320589 419.12109375 920.203125 C420.06993872 919.11962387 421.02040981 918.03754418 421.97265625 916.95703125 C429.77475274 908.01231593 437.0115681 898.70362749 444.12109375 889.203125 C444.99217773 888.04756104 444.99217773 888.04756104 445.88085938 886.86865234 C454.11370289 875.93876528 461.90870427 864.83353031 469.12109375 853.203125 C469.51103516 852.57486816 469.90097656 851.94661133 470.30273438 851.29931641 C476.12462915 841.86477227 481.56948725 832.22148636 486.87255859 822.48730469 C487.67960476 821.01082367 488.49206986 819.53728606 489.31103516 818.06738281 C522.05144859 759.28996144 542.59469779 689.32109016 547.12109375 622.203125 C547.20359375 621.01074219 547.28609375 619.81835938 547.37109375 618.58984375 C547.60878383 612.5066482 547.60878383 612.5066482 545.24609375 607.015625 C541.37298773 603.7120934 538.05354212 604.0572889 533.16960144 604.06268311 C531.92276289 604.05822642 531.92276289 604.05822642 530.65073568 604.0536797 C527.84942247 604.04496832 525.04815187 604.0434824 522.24682617 604.04199219 C520.24481616 604.03736573 518.24280704 604.03234131 516.24079895 604.02694702 C510.7903426 604.01380426 505.33989858 604.0073744 499.88942885 604.00293636 C496.48658503 604.00000862 493.0837446 603.99590439 489.68090248 603.99143219 C479.04115698 603.97775224 468.40141921 603.96808805 457.76166552 603.9642303 C445.46676687 603.95974835 433.17197933 603.94219612 420.87711447 603.9132297 C411.38238012 603.89163448 401.88767707 603.88152717 392.39291841 603.88018918 C386.71809614 603.87913959 381.04337825 603.87319913 375.36858177 603.85536957 C370.03097881 603.83892624 364.69355908 603.83671519 359.35593987 603.84550858 C357.39555115 603.84628096 355.43515274 603.84190982 353.47478867 603.83205032 C350.8008182 603.81938932 348.12750245 603.82517568 345.45353699 603.83563232 C344.67571198 603.82757592 343.89788698 603.81951952 343.09649152 603.81121898 C338.60461035 603.85236923 335.6317707 604.32175148 332.12109375 607.203125 Z M605.12109375 607.203125 C602.78289041 610.47723992 602.71074763 613.85101235 602.41015625 617.79296875 C602.30123048 619.1326598 602.19217527 620.47234034 602.08300781 621.81201172 C602.02858521 622.51646423 601.9741626 623.22091675 601.91809082 623.94671631 C595.60038149 704.53225996 572.27201421 783.8621909 525.12109375 868.203125 C524.64720215 869.00492188 524.17331055 869.80671875 523.68505859 870.6328125 C497.91933541 914.03530388 466.26511452 953.0693107 430.68359375 988.765625 C429.7601416 989.69375 428.83668945 990.621875 427.88525391 991.578125 C422.78996362 996.66142637 417.58894713 1001.52533894 412.12109375 1006.203125 C410.42978514 1007.71972167 408.74167034 1009.23989781 407.05859375 1010.765625 C404.0984643 1013.44253219 401.11419976 1016.07341503 398.05859375 1018.640625 C394.87559005 1021.4172878 394.25964657 1021.95614959 393.80859375 1026.015625 C394.20171423 1030.02545394 395.17280017 1031.48759144 398.12109375 1034.203125 C404.18079716 1036.3058612 409.17944572 1033.8017463 414.87109375 1031.640625 C416.4962793 1031.03758545 416.4962793 1031.03758545 418.15429688 1030.42236328 C463.00217738 1013.56353439 507.26518143 993.80355618 548.67089844 969.63330078 C550.95318518 968.30113301 553.24280441 966.98271526 555.53515625 965.66796875 C585.43118009 948.42280808 614.22714339 928.83807366 641.12109375 907.203125 C641.77883789 906.67686523 642.43658203 906.15060547 643.11425781 905.60839844 C650.56788434 899.64059121 657.93209576 893.62767133 664.97265625 887.171875 C666.95364643 885.35656763 668.96435942 883.58619716 670.99609375 881.828125 C680.29136378 873.68788852 689.18393195 865.24026394 697.93359375 856.515625 C698.82908936 855.62472168 699.72458496 854.73381836 700.6472168 853.81591797 C705.14582382 849.30682468 709.50838235 844.74160433 713.65698242 839.90795898 C715.51036537 837.74985108 717.44108302 835.66770355 719.37109375 833.578125 C724.40796083 827.98915613 729.00353763 822.10581287 733.59814453 816.15429688 C735.15632151 814.15799191 736.74254477 812.18703065 738.3359375 810.21875 C753.59353327 791.23029035 766.43696164 770.54533839 778.12109375 749.203125 C778.76353027 748.05166992 778.76353027 748.05166992 779.41894531 746.87695312 C799.84990379 710.21725941 812.88097967 669.33915864 819.55859375 628.015625 C819.73519531 626.93394043 819.91179687 625.85225586 820.09375 624.73779297 C820.91002362 619.28761013 821.45059034 614.58614109 820.12109375 609.203125 C818.22998264 606.8849888 816.78281344 605.53398485 814.12109375 604.203125 C811.4621036 604.1008846 808.82904731 604.0597458 806.16960144 604.06268311 C804.92276289 604.05822642 804.92276289 604.05822642 803.65073568 604.0536797 C800.84942247 604.04496832 798.04815187 604.0434824 795.24682617 604.04199219 C793.24481616 604.03736573 791.24280704 604.03234131 789.24079895 604.02694702 C783.7903426 604.01380426 778.33989858 604.0073744 772.88942885 604.00293636 C769.48658503 604.00000862 766.0837446 603.99590439 762.68090248 603.99143219 C752.04115698 603.97775224 741.40141921 603.96808805 730.76166552 603.9642303 C718.46676687 603.95974835 706.17197933 603.94219612 693.87711447 603.9132297 C684.38238012 603.89163448 674.88767707 603.88152717 665.39291841 603.88018918 C659.71809614 603.87913959 654.04337825 603.87319913 648.36858177 603.85536957 C643.03097881 603.83892624 637.69355908 603.83671519 632.35593987 603.84550858 C630.39555115 603.84628096 628.43515274 603.84190982 626.47478867 603.83205032 C623.8008182 603.81938932 621.12750245 603.82517568 618.45353699 603.83563232 C617.67571198 603.82757592 616.89788698 603.81951952 616.09649152 603.81121898 C611.59238517 603.85248122 608.71201544 604.4329133 605.12109375 607.203125 Z " fill="#000000" transform="translate(1105.87890625,557.796875)"/>
</svg>
